<?xml version="1.0" encoding="utf-8"?>
<!-- Generator: Adobe Illustrator 23.0.1, SVG Export Plug-In . SVG Version: 6.00 Build 0)  -->
<svg version="1.1" id="Layer_1" xmlns="http://www.w3.org/2000/svg" xmlns:xlink="http://www.w3.org/1999/xlink" x="0px" y="0px"
	 width="1200px" height="730px" viewBox="0 0 1200 730" enable-background="new 0 0 1200 730" xml:space="preserve">
<metadata><?xpacket begin="﻿" id="W5M0MpCehiHzreSzNTczkc9d"?>
<x:xmpmeta xmlns:x="adobe:ns:meta/" x:xmptk="Adobe XMP Core 5.6-c145 79.163499, 2018/08/13-16:40:22        ">
   <rdf:RDF xmlns:rdf="http://www.w3.org/1999/02/22-rdf-syntax-ns#">
      <rdf:Description rdf:about=""
            xmlns:xmp="http://ns.adobe.com/xap/1.0/"
            xmlns:xmpGImg="http://ns.adobe.com/xap/1.0/g/img/"
            xmlns:xmpTPg="http://ns.adobe.com/xap/1.0/t/pg/"
            xmlns:stDim="http://ns.adobe.com/xap/1.0/sType/Dimensions#"
            xmlns:xmpG="http://ns.adobe.com/xap/1.0/g/"
            xmlns:dc="http://purl.org/dc/elements/1.1/">
         <xmp:CreatorTool>Adobe Illustrator CC 23.0 (Macintosh)</xmp:CreatorTool>
         <xmp:CreateDate>2018-12-11T12:51:59-05:00</xmp:CreateDate>
         <xmp:Thumbnails>
            <rdf:Alt>
               <rdf:li rdf:parseType="Resource">
                  <xmpGImg:width>256</xmpGImg:width>
                  <xmpGImg:height>160</xmpGImg:height>
                  <xmpGImg:format>JPEG</xmpGImg:format>
                  <xmpGImg:image>/9j/4AAQSkZJRgABAgEASABIAAD/7QAsUGhvdG9zaG9wIDMuMAA4QklNA+0AAAAAABAASAAAAAEA&#xA;AQBIAAAAAQAB/+4ADkFkb2JlAGTAAAAAAf/bAIQABgQEBAUEBgUFBgkGBQYJCwgGBggLDAoKCwoK&#xA;DBAMDAwMDAwQDA4PEA8ODBMTFBQTExwbGxscHx8fHx8fHx8fHwEHBwcNDA0YEBAYGhURFRofHx8f&#xA;Hx8fHx8fHx8fHx8fHx8fHx8fHx8fHx8fHx8fHx8fHx8fHx8fHx8fHx8fHx8f/8AAEQgAoAEAAwER&#xA;AAIRAQMRAf/EAaIAAAAHAQEBAQEAAAAAAAAAAAQFAwIGAQAHCAkKCwEAAgIDAQEBAQEAAAAAAAAA&#xA;AQACAwQFBgcICQoLEAACAQMDAgQCBgcDBAIGAnMBAgMRBAAFIRIxQVEGE2EicYEUMpGhBxWxQiPB&#xA;UtHhMxZi8CRygvElQzRTkqKyY3PCNUQnk6OzNhdUZHTD0uIIJoMJChgZhJRFRqS0VtNVKBry4/PE&#xA;1OT0ZXWFlaW1xdXl9WZ2hpamtsbW5vY3R1dnd4eXp7fH1+f3OEhYaHiImKi4yNjo+Ck5SVlpeYmZ&#xA;qbnJ2en5KjpKWmp6ipqqusra6voRAAICAQIDBQUEBQYECAMDbQEAAhEDBCESMUEFURNhIgZxgZEy&#xA;obHwFMHR4SNCFVJicvEzJDRDghaSUyWiY7LCB3PSNeJEgxdUkwgJChgZJjZFGidkdFU38qOzwygp&#xA;0+PzhJSktMTU5PRldYWVpbXF1eX1RlZmdoaWprbG1ub2R1dnd4eXp7fH1+f3OEhYaHiImKi4yNjo&#xA;+DlJWWl5iZmpucnZ6fkqOkpaanqKmqq6ytrq+v/aAAwDAQACEQMRAD8A8qYq7FXYq7FXYq7FXYq7&#xA;FXYq7FXYq7FXYq7FXYq7FXYq7FXYq7FXYq7FXYq7FXYq7FXYq7FXYq7FXYq7FXYqy78rvIQ88ebY&#xA;tEe+GnWwgnu7q74eqyxW8ZdgkdU5MaUHxDx9sVXfmh5ATyTr1pYQX41Ky1Gwt9UsbjiscggugSqS&#xA;oryqrrxP2XIIoe+KsPxV2KuxV2KuxV2KuxVGaNDZz6xYwXriOzluIkuXLBAsTOA5LHZaLXfFX0BP&#xA;+V3/ADjgmsWlxH5wtz5eSXUk1BWvY/rPNJ4ba0jjRPUdkBaaVZQnF0VSTxPLFUHD+VH5LxaZoZvf&#xA;M+nRy2t1KPMd1+lbeU3MFskzMbSK3aZgkzrEqfCJAD0bFUq8veQPyjXzR5ytNQ1W01PTLE203ld1&#xA;1S1sxcQ3JZyplnlt0aSKMqsgLAqwO3bFUVb/AJHflc0Nu1357gspZrRJp4pLjTnNvO6qZYWIuAJP&#xA;q/Lk/HdwwCAlWxVG/wDKjvyu0/lZ6j5qgW/urW2Ki6ubaFrZp57EtcBUlJC+ldSpwnVT8BYDjQ4q&#xA;gL/8jvyut5LqFfzAgBSYNbXdbWSD6pWy5tIFm5eoovXoF2b026UxVKfPn5X/AJdaNoN1/hvzNHrm&#xA;twalbW/Fbmz9IW9zCN/hkrJxl2LpUL0YChOKpt5j/KX8nraIXVl5xjNlY2YtNRlt5I7h21aO5gt2&#xA;kWNzGxt3Fz6n7vlRUYgnFUWfyf8AyeggubR/NCNf21xLPa3ElxZPHcW9vAspif6rdyKiTcT6bfDJ&#xA;VqEbVKrdx+S/5NX/AJgn+reebbTLG8u75LCxMsLektjcSxSRmaWSgVx6TQM7VdORqTSqrwzWLO2s&#xA;tXvrK1ulvrW2uJYYL1BRJo43KrKoq1A4HIbnFUHirsVdirsVdirsVdirsVdirsVdiqK0zVNS0q+h&#xA;1DTLqaxvrc8oLq3dopUNKVV0IYbGmKr9X1nVtZ1CXUdWvJr+/nIM11cyNLI1BQVZyTsNh4YqgsVd&#xA;irsVdirsVdirsVdirsVdirsVdiq53d25OxZj1JNTttiq3FXYq7FXYq7FXYq7FXYq7FXYq7FXYq7F&#xA;XYq7FXYq7FXYq7FXYq7FXYq7FXYq7FXYq7FXYq7FXYq7FXYq7FXYq7FXYq7FXYq7FXYq7FXYq7FX&#xA;Yq7FXYq7FXYq7FXYq7FXYq7FXYq7FXYq7FXYq7FXYq7FXYq7FXYq7FXYq7FXYq7FXYq7FXYq7FXY&#xA;q7FXYq7FXYq7FXYq7FXYq7FXYq7FXYq7FXYq7FXYq7FXYq7FXYq7FXYq7FXYq7FXYq7FXYq7FXYq&#xA;7FXYq7FXYq7FXYq7FXYq7FXYq7FXYq7FXYq7FXYq7FXYq7FXYq7FXYq7FXYq7FXYq7FXYq7FXYq7&#xA;FXYq7FXYq7FXYq7FXYq7FXYq7FXYq7FXYq7FXYq7FXYq7FXYq7FXYq7FXYq7FXYq7FXYq7FXYq7F&#xA;XYq7FXYq7FXYq7FXYq7FXYq7FXYq7FXYq7FXYq7FXYq7FXYq7FXYq7FXYq7FXYq7FXYq7FXYq7FX&#xA;Yq7FXYq7FXYq7FXYq7FXYq7FXYq7FXYq7FXYq7FXYq7FXYq7FXYq7FXYq7FXYq7FXYq7FXYq7FXY&#xA;q7FXYq7FXYq7FXYq7FXYq7FXYq7FXYq7FXYq7FXYq7FXYq7FXYq7FXYq7FXYq7FXYq7FXYq7FXYq&#xA;7FXYq7FXYq7FXYq7FXYq7FXYq7FXYq7FXYq7FXYq7FXYq7FXYq7FXYq7FXYq7FXYq7FXYq7FXYq7&#xA;FXYq7FXYq7FXYq7FXYq7FXYq7FXYq7FXYq7FXYq7FXYq7FXYq7FXYq7FXYq7FXYq7FXYq7FXYq7F&#xA;XYq7FXYq7FXYq7FXYq7FXYq7FXYq7FXYq7FXYq7FXYq7FXYq7FXYq7FXYq7FXYq7FXYq7FXYq7FX&#xA;Yq7FXYq7FXYq7FXYq7FXYq7FXYq7FXYq7FXYq7FXYq7FXYq7FXYq7FXYq7FXYq7FXYq7FXYq7FXY&#xA;q7FXYq7FXYq7FXYq7FXYq7FXYq7FXYq7FXYq7FXYq7FXYq7FXYq7FXYq7FXYq7FXYq7FXYq7FXYq&#xA;7FXYq7FXYq7FXYq7FXYq7FXYq7FXYq7FXYq7FXYq7FXYq7FXYq7FXYq7FXYq7FXYq7FXYq7FXYq7&#xA;FXYq7FXYq7FXYq7FXYq7FXYq7FXYq7FXYq7FXYq7FXYq7FXYq7FXYq7FXYq7FXYq7FXYq7FXYq7F&#xA;XYq7FXYq7FXYq7FXYq7FXYq7FXYq7FXYq7FXYq7FXYq7FXYq7FXYq7FXYq7FXYq7FXYq7FXYq7FX&#xA;Yq7FXYq7FXYq7FXYqmegXmh2t60ms6e2pWhTiIEmaBg3JTyDrX9kEUPjiqaajq3kF7CaLTdAuobx&#xA;+Qhnub71ggb7J4pHCCV9+v4BVjGKq1pbi5u4bcyxwCaRY/WmPGNORA5OwBoq1qTTFXq6+U/yuS1A&#xA;mudPeZYoDJLHrbCrcF9Ro1NoSKtXkpUnw6Yq8v1q0tLTU54bO4jurQEPbzxFmUo6h1BLpE3JQ3Fq&#xA;qPiBxVBYqy06v+WZiQDy7qCyjj6rHUVYNuOXAfV14GgNCeXXoaVxVj2rz6ZPqEsumWzWdiwT0reR&#xA;zKy0QBquacqsCemKoPFU58vX/li0W5Gt6VLqZk4C3MVw1uYgOXqHZXDE1FKigp3xVb5gvPLVz9WO&#xA;iafNp/BONyJp/XDtRaMvwrx35V/hiqUYq7FXYq7FXYq7FXYq7FXYq7FWV/8AKp/zT/6k3XP+4bef&#xA;9U8Vd/yqf80/+pN1z/uG3n/VPFXf8qn/ADT/AOpN1z/uG3n/AFTxV3/Kp/zT/wCpN1z/ALht5/1T&#xA;xV3/ACqf80/+pN1z/uG3n/VPFXf8qn/NP/qTdc/7ht5/1TxV3/Kp/wA0/wDqTdc/7ht5/wBU8Vd/&#xA;yqf80/8AqTdc/wC4bef9U8Vd/wAqn/NP/qTdc/7ht5/1TxV3/Kp/zT/6k3XP+4bef9U8Vd/yqf8A&#xA;NP8A6k3XP+4bef8AVPFXf8qn/NP/AKk3XP8AuG3n/VPFXf8AKp/zT/6k3XP+4bef9U8Vd/yqf80/&#xA;+pN1z/uG3n/VPFXf8qn/ADT/AOpN1z/uG3n/AFTxV3/Kp/zT/wCpN1z/ALht5/1TxV3/ACqf80/+&#xA;pN1z/uG3n/VPFXf8qn/NP/qTdc/7ht5/1TxV3/Kp/wA0/wDqTdc/7ht5/wBU8Vd/yqf80/8AqTdc&#xA;/wC4bef9U8Vd/wAqn/NP/qTdc/7ht5/1TxV3/Kp/zT/6k3XP+4bef9U8Vd/yqf8ANP8A6k3XP+4b&#xA;ef8AVPFXf8qn/NP/AKk3XP8AuG3n/VPFXf8AKp/zT/6k3XP+4bef9U8Vd/yqf80/+pN1z/uG3n/V&#xA;PFXf8qn/ADT/AOpN1z/uG3n/AFTxV3/Kp/zT/wCpN1z/ALht5/1TxV3/ACqf80/+pN1z/uG3n/VP&#xA;FXf8qn/NP/qTdc/7ht5/1TxV3/Kp/wA0/wDqTdc/7ht5/wBU8Vd/yqf80/8AqTdc/wC4bef9U8Vf&#xA;/9k=</xmpGImg:image>
               </rdf:li>
            </rdf:Alt>
         </xmp:Thumbnails>
         <xmpTPg:MaxPageSize rdf:parseType="Resource">
            <stDim:w>1200.000000</stDim:w>
            <stDim:h>730.000000</stDim:h>
            <stDim:unit>Pixels</stDim:unit>
         </xmpTPg:MaxPageSize>
         <xmpTPg:NPages>1</xmpTPg:NPages>
         <xmpTPg:HasVisibleTransparency>False</xmpTPg:HasVisibleTransparency>
         <xmpTPg:HasVisibleOverprint>False</xmpTPg:HasVisibleOverprint>
         <xmpTPg:PlateNames>
            <rdf:Seq>
               <rdf:li>Cyan</rdf:li>
               <rdf:li>Magenta</rdf:li>
               <rdf:li>Yellow</rdf:li>
               <rdf:li>Black</rdf:li>
            </rdf:Seq>
         </xmpTPg:PlateNames>
         <xmpTPg:SwatchGroups>
            <rdf:Seq>
               <rdf:li rdf:parseType="Resource">
                  <xmpG:groupName>Default Swatch Group</xmpG:groupName>
                  <xmpG:groupType>0</xmpG:groupType>
               </rdf:li>
            </rdf:Seq>
         </xmpTPg:SwatchGroups>
         <dc:format>image/svg+xml</dc:format>
      </rdf:Description>
   </rdf:RDF>
</x:xmpmeta>
                                                                                                    
                                                                                                    
                                                                                                    
                                                                                                    
                                                                                                    
                                                                                                    
                                                                                                    
                                                                                                    
                                                                                                    
                                                                                                    
                                                                                                    
                                                                                                    
                                                                                                    
                                                                                                    
                                                                                                    
                                                                                                    
                                                                                                    
                                                                                                    
                                                                                                    
                                                                                                    
                           
<?xpacket end="w"?>
	</metadata>
<g>
	<g>
		<g id="Layer_3">
			<rect x="-21.9" y="-21.2" width="1252.7" height="777.1"/>
		</g>
	</g>
	<g>
		<path fill="#FFFFFF" d="M427.7,30.6v21.5h-5l-9.5-11.4v11.4h-5.9V30.6h5l9.5,11.4V30.6H427.7z"/>
		<path fill="#FFFFFF" d="M446.3,47.9h-9l-1.7,4.2h-6.2l9.5-21.5h5.9l9.5,21.5H448L446.3,47.9z M444.5,43.5l-2.7-6.9l-2.7,6.8
			L444.5,43.5z"/>
		<path fill="#FFFFFF" d="M458.5,51.9c-1.6-0.4-2.9-1-4-1.7l2-4.4c1,0.6,2,1.2,3.4,1.5c1.2,0.4,2.5,0.6,3.7,0.6
			c2.3,0,3.5-0.6,3.5-1.8c0-0.6-0.4-1.1-1-1.3s-1.8-0.6-3.2-1c-1.6-0.4-2.9-0.7-4.1-1.2c-1.1-0.4-2-1.1-2.7-2
			c-0.8-0.9-1.2-2-1.2-3.5c0-1.3,0.4-2.5,1.1-3.5c0.7-1.1,1.8-1.9,3.2-2.5s3.2-0.9,5.2-0.9c1.4,0,2.8,0.2,4.2,0.4
			c1.3,0.4,2.6,0.8,3.6,1.4l-1.9,4.5c-2-1.1-4-1.7-5.9-1.7c-1.2,0-2.1,0.2-2.7,0.5c-0.5,0.4-0.8,0.8-0.8,1.4s0.4,1,1,1.3
			s1.7,0.6,3.2,0.9c1.6,0.4,3,0.7,4.1,1.2s2,1.1,2.7,1.9c0.8,0.9,1.2,2,1.2,3.5c0,1.3-0.4,2.5-1.1,3.5s-1.8,1.9-3.2,2.5
			c-1.4,0.6-3.2,1-5.2,0.9C461.8,52.5,460.1,52.4,458.5,51.9z"/>
		<path fill="#FFFFFF" d="M490.3,48h-9l-1.7,4.2h-6.2l9.5-21.5h5.9l9.5,21.5H492L490.3,48z M488.5,43.5l-2.7-6.9l-2.7,6.8
			L488.5,43.5z"/>
		<path fill="#FFFFFF" d="M526.2,47.5v4.7H509V30.7h16.8v4.7H515V39h9.6v4.5H515v3.9L526.2,47.5L526.2,47.5z"/>
		<path fill="#FFFFFF" d="M539.7,52.3l-2.9-4.3l-3.2,4.3h-6.3l6.3-8.3l-6.1-8.3h6.6l2.9,4.2l3.1-4.2h6.2l-6.1,8.1l6.3,8.5
			L539.7,52.3z"/>
		<path fill="#FFFFFF" d="M551.2,51.4c-1.4-0.7-2.6-1.8-3.4-3.1c-0.8-1.3-1.2-2.7-1.2-4.4c0-1.6,0.4-3.1,1.2-4.4
			c0.8-1.3,2-2.3,3.4-3s3-1.1,4.9-1.1s3.4,0.4,4.9,1.1c1.4,0.7,2.6,1.8,3.4,3c0.8,1.3,1.2,2.7,1.2,4.4s-0.4,3.1-1.2,4.4
			s-2,2.3-3.4,3.1c-1.4,0.7-3,1.1-4.9,1.1S552.6,52.2,551.2,51.4z M558.5,46.9c0.6-0.7,1-1.7,1-2.9s-0.4-2.2-1-2.9S557,40,556,40
			s-1.9,0.4-2.5,1.1c-0.6,0.7-1,1.7-1,2.8c0,1.2,0.4,2.2,1,2.9s1.5,1.1,2.5,1.1S557.8,47.6,558.5,46.9z"/>
		<path fill="#FFFFFF" d="M582.6,36.5c1.2,0.7,2.2,1.7,2.9,3s1.1,2.8,1.1,4.5s-0.4,3.2-1.1,4.5c-0.7,1.3-1.7,2.3-2.9,3
			s-2.6,1.1-4.2,1.1c-2,0-3.5-0.6-4.6-1.8v7.4H568V35.7h5.6v1.7c1.1-1.3,2.7-2,4.9-2C580.1,35.4,581.4,35.8,582.6,36.5z M579.8,46.9
			c0.6-0.7,1-1.7,1-2.9s-0.4-2.2-1-2.9s-1.5-1.1-2.5-1.1c-1.1,0-1.9,0.4-2.5,1.1c-0.6,0.7-1,1.7-1,2.9s0.4,2.2,1,2.9
			s1.5,1.1,2.5,1.1S579.2,47.6,579.8,46.9z"/>
		<path fill="#FFFFFF" d="M589.4,29.6h5.9v22.8h-5.9V29.6z"/>
		<path fill="#FFFFFF" d="M612.4,37.3c1.4,1.2,2.1,3.2,2.1,5.8v9.2h-5.4v-2.1c-0.8,1.6-2.5,2.4-4.9,2.4c-1.3,0-2.4-0.3-3.4-0.7
			s-1.7-1.1-2.1-1.9s-0.7-1.7-0.7-2.7c0-1.6,0.6-2.8,1.8-3.6c1.2-0.9,3.1-1.3,5.6-1.3h3.3c-0.1-1.8-1.2-2.7-3.5-2.7
			c-0.8,0-1.6,0.1-2.4,0.4c-0.8,0.3-1.5,0.6-2.1,1.1l-2-4c0.9-0.6,2-1.1,3.4-1.4c1.3-0.4,2.7-0.5,4-0.5
			C608.8,35.4,610.9,36.1,612.4,37.3z M607.6,48.5c0.5-0.4,0.9-0.8,1.1-1.4v-1.4h-2.5c-1.7,0-2.6,0.5-2.6,1.7c0,0.5,0.2,0.9,0.6,1.2
			c0.4,0.3,0.9,0.4,1.6,0.4C606.5,48.9,607.1,48.7,607.6,48.5z"/>
		<path fill="#FFFFFF" d="M634.1,37.3c1.2,1.2,1.9,3.1,1.9,5.6v9.5h-5.9v-8.6c0-2.3-0.9-3.4-2.7-3.4c-1,0-1.8,0.4-2.4,1
			c-0.6,0.6-0.9,1.6-0.9,2.9v8.1h-5.9V35.8h5.6v1.8c0.6-0.7,1.4-1.2,2.3-1.5c0.9-0.4,1.9-0.5,2.9-0.5
			C631.1,35.4,632.8,36.1,634.1,37.3z"/>
		<path fill="#FFFFFF" d="M656.8,45.5h-12.1c0.3,0.9,0.7,1.5,1.4,2s1.6,0.7,2.7,0.7c0.8,0,1.5-0.1,2-0.4c0.6-0.3,1.2-0.6,1.8-1.1
			l3.1,3.2c-1.6,1.8-4,2.7-7.1,2.7c-2,0-3.6-0.4-5.1-1.2c-1.5-0.7-2.6-1.8-3.5-3.1s-1.2-2.7-1.2-4.4c0-1.6,0.4-3.1,1.2-4.4
			c0.8-1.3,1.9-2.3,3.3-3c1.4-0.7,2.9-1.1,4.7-1.1c1.7,0,3.2,0.4,4.5,1.1c1.3,0.7,2.4,1.7,3.2,3s1.2,2.8,1.2,4.6
			C656.8,44.2,656.8,44.7,656.8,45.5z M645.7,40.4c-0.6,0.5-1,1.2-1.2,2.1h6.8c-0.2-0.9-0.5-1.6-1.2-2.1c-0.6-0.5-1.3-0.8-2.2-0.8
			C647.1,39.6,646.3,39.9,645.7,40.4z"/>
		<path fill="#FFFFFF" d="M670.9,51.7c-0.5,0.3-1.1,0.5-1.8,0.7s-1.4,0.3-2.2,0.3c-2.1,0-3.8-0.5-5-1.6s-1.8-2.7-1.8-4.8v-5.6h-2.4
			v-4.3h2.4v-4.3h5.9v4.3h3.8v4.3H666v5.5c0,0.6,0.2,1.1,0.4,1.4c0.4,0.4,0.7,0.5,1.2,0.5c0.7,0,1.2-0.2,1.8-0.5L670.9,51.7z"/>
		<path fill="#FFFFFF" d="M696.8,48.3h-9l-1.7,4.2h-6.2l9.5-21.5h5.9l9.5,21.5h-6.3L696.8,48.3z M695.1,43.8l-2.7-6.9l-2.7,6.8
			L695.1,43.8z"/>
		<path fill="#FFFFFF" d="M714.1,36.1c1-0.4,2-0.5,3.3-0.5v5.2c-0.5-0.1-1-0.1-1.3-0.1c-1.2,0-2.2,0.4-2.9,1
			c-0.7,0.7-1.1,1.7-1.1,3.1v7.6h-5.9V35.9h5.6v2C712.4,37.1,713.1,36.5,714.1,36.1z"/>
		<path fill="#FFFFFF" d="M723.2,51.7c-1.4-0.7-2.6-1.8-3.4-3.1c-0.8-1.3-1.2-2.7-1.2-4.4s0.4-3.1,1.2-4.4c0.8-1.3,2-2.3,3.4-3
			s3.1-1.1,5-1.1s3.5,0.4,4.9,1.2c1.3,0.8,2.3,2,2.9,3.4l-4.5,2.3c-0.8-1.5-1.9-2.2-3.3-2.2c-1.1,0-2,0.4-2.6,1.1
			c-0.7,0.7-1.1,1.7-1.1,2.8c0,1.2,0.4,2.2,1.1,2.9s1.5,1.1,2.6,1.1c1.4,0,2.6-0.7,3.3-2.2l4.5,2.3c-0.5,1.4-1.5,2.6-2.9,3.4
			c-1.3,0.8-3,1.2-4.9,1.2C726.3,52.8,724.6,52.4,723.2,51.7z"/>
		<path fill="#FFFFFF" d="M753.8,37.5c1.2,1.2,1.9,3.1,1.9,5.6v9.5h-5.9V44c0-2.3-0.9-3.4-2.7-3.4c-1,0-1.8,0.4-2.4,1
			c-0.6,0.6-0.9,1.6-0.9,2.9v8.1H738V29.8h5.9v7.6c0.6-0.6,1.4-1.1,2.2-1.3c0.8-0.3,1.8-0.4,2.7-0.4
			C750.9,35.6,752.6,36.2,753.8,37.5z"/>
		<path fill="#FFFFFF" d="M759.8,33.2c-0.6-0.6-1-1.3-1-2.2c0-0.9,0.4-1.6,1-2.2s1.5-0.9,2.6-0.9s2,0.3,2.6,0.9c0.6,0.5,1,1.2,1,2.1
			s-0.4,1.7-1,2.3c-0.6,0.6-1.5,0.9-2.6,0.9S760.4,33.7,759.8,33.2z M759.4,36h5.9v16.6h-5.9V36z"/>
		<path fill="#FFFFFF" d="M786.5,36l-6.9,16.6h-6l-6.8-16.7h5.9l4,10.2L781,36H786.5z"/>
		<path fill="#FFFFFF" d="M804.4,45.8h-12.1c0.3,0.9,0.7,1.5,1.4,2s1.6,0.7,2.7,0.7c0.8,0,1.5-0.1,2-0.4c0.6-0.3,1.2-0.6,1.8-1.1
			l3.1,3.2c-1.6,1.8-4,2.7-7.1,2.7c-2,0-3.6-0.4-5.1-1.2c-1.5-0.7-2.6-1.8-3.5-3.1c-0.8-1.3-1.2-2.7-1.2-4.4c0-1.6,0.4-3.1,1.2-4.4
			c0.8-1.3,1.9-2.3,3.3-3c1.4-0.7,2.9-1.1,4.7-1.1c1.7,0,3.2,0.4,4.5,1.1c1.3,0.7,2.4,1.7,3.2,3s1.2,2.8,1.2,4.6
			C804.5,44.4,804.5,44.8,804.4,45.8z M793.4,40.6c-0.6,0.5-1,1.2-1.2,2.1h6.8c-0.2-0.9-0.5-1.6-1.2-2.1c-0.6-0.5-1.3-0.8-2.2-0.8
			C794.9,39.8,794,40.1,793.4,40.6z"/>
	</g>
	<g>
		<g>
			<circle fill="#FFFFFF" cx="57.1" cy="49.4" r="12.9"/>
		</g>
		<g>
			<path d="M55,55.7c0-0.3,0.1-0.5,0.3-0.6s0.5-0.2,0.8-0.2h0.2V49h-0.8c-0.3,0-0.5-0.2-0.5-0.6c0-0.3,0.1-0.5,0.3-0.6
				s0.5-0.2,0.8-0.2h2.7V55l0.6,0.3c0.3,0.1,0.5,0.2,0.6,0.3s0.2,0.2,0.2,0.4c0,0.1,0,0.2-0.1,0.3c0,0.1-0.1,0.1-0.3,0.1h-4.3
				C55.1,56.3,55,56.1,55,55.7z M56.3,45.9c-0.3-0.3-0.5-0.7-0.5-1.2s0.2-0.9,0.5-1.2s0.7-0.4,1.2-0.4s0.8,0.1,1.2,0.4
				c0.3,0.3,0.5,0.7,0.5,1.2s-0.2,0.9-0.5,1.2s-0.7,0.4-1.2,0.4S56.6,46.2,56.3,45.9z"/>
		</g>
	</g>
	<g>
		<path fill="#FFFFFF" d="M397.5,697.2H395v-0.9h6v0.9h-2.5v6.4h-1V697.2z"/>
		<path fill="#FFFFFF" d="M407.1,703.6l-1.6-2.2c-0.2,0-0.3,0-0.5,0h-1.8v2.2h-1v-7.3h2.8c1,0,1.7,0.2,2.2,0.6
			c0.6,0.4,0.8,1,0.8,1.8c0,0.6-0.2,1-0.4,1.4c-0.2,0.4-0.6,0.7-1.2,0.9l1.8,2.5L407.1,703.6z M406.5,700.1c0.3-0.3,0.6-0.7,0.6-1.2
			c0-0.6-0.2-1-0.5-1.2c-0.3-0.3-0.9-0.4-1.5-0.4h-1.8v3.3h1.8C405.7,700.6,406.1,700.4,406.5,700.1z"/>
		<path fill="#FFFFFF" d="M414.4,701.9h-3.9l-0.8,1.8h-1l3.3-7.3h1l3.3,7.3h-1.1L414.4,701.9z M414.1,701l-1.6-3.6l-1.6,3.6H414.1z"
			/>
		<path fill="#FFFFFF" d="M423.7,696.4v7.3h-0.9l-4.4-5.5v5.5h-1v-7.3h0.9l4.4,5.5v-5.5H423.7z"/>
		<path fill="#FFFFFF" d="M426.5,703.6c-0.5-0.2-0.9-0.4-1.2-0.6l0.4-0.8c0.2,0.2,0.6,0.5,1,0.6c0.4,0.2,0.9,0.2,1.4,0.2
			c0.6,0,1-0.1,1.4-0.3s0.5-0.5,0.5-0.8c0-0.2-0.1-0.5-0.2-0.6c-0.2-0.2-0.4-0.2-0.6-0.4c-0.2-0.1-0.6-0.2-1-0.3
			c-0.6-0.2-1-0.2-1.4-0.4c-0.3-0.2-0.6-0.3-0.9-0.6c-0.2-0.2-0.3-0.6-0.3-1.1c0-0.4,0.1-0.7,0.3-1s0.5-0.6,1-0.7
			c0.4-0.2,1-0.2,1.5-0.2c0.4,0,0.9,0.1,1.3,0.2c0.4,0.1,0.8,0.2,1,0.5l-0.3,0.8c-0.3-0.2-0.6-0.3-1-0.5c-0.3-0.1-0.7-0.2-1-0.2
			c-0.6,0-1,0.1-1.4,0.3c-0.3,0.2-0.5,0.5-0.5,0.8c0,0.2,0.1,0.5,0.2,0.6c0.2,0.2,0.4,0.2,0.6,0.4c0.2,0.1,0.6,0.2,1,0.2
			c0.6,0.2,1,0.2,1.3,0.4s0.6,0.3,0.9,0.6c0.2,0.2,0.3,0.6,0.3,1.1c0,0.4-0.1,0.7-0.3,1s-0.6,0.6-1,0.7s-1,0.2-1.6,0.2
			C427.5,703.8,427,703.7,426.5,703.6z"/>
		<path fill="#FFFFFF" d="M432.4,696.4h1v7.3h-1V696.4z"/>
		<path fill="#FFFFFF" d="M437.1,697.3h-2.5v-0.9h6v0.9h-2.5v6.4h-1V697.3z"/>
	</g>
	<g>
		<path fill="#FFFFFF" d="M535,703.6l-1.6-2.2c-0.2,0-0.3,0-0.5,0h-1.8v2.2h-1v-7.3h2.8c1,0,1.7,0.2,2.2,0.6c0.6,0.4,0.8,1,0.8,1.8
			c0,0.6-0.2,1-0.4,1.4s-0.6,0.7-1.2,0.9l1.8,2.5L535,703.6z M534.5,700.1c0.3-0.3,0.6-0.7,0.6-1.2c0-0.6-0.2-1-0.5-1.2
			c-0.3-0.3-0.9-0.4-1.5-0.4h-1.8v3.3h1.8C533.7,700.6,534.1,700.4,534.5,700.1z"/>
		<path fill="#FFFFFF" d="M542.4,701.9h-3.9l-0.8,1.8h-1l3.3-7.3h1l3.3,7.3h-1.1L542.4,701.9z M542,701l-1.6-3.6l-1.6,3.6H542z"/>
		<path fill="#FFFFFF" d="M545.4,696.4h3.1c0.8,0,1.4,0.2,2.1,0.5c0.6,0.3,1,0.7,1.4,1.3c0.3,0.6,0.5,1.2,0.5,1.9s-0.2,1.4-0.5,1.9
			s-0.8,1-1.4,1.3c-0.6,0.3-1.3,0.5-2.1,0.5h-3.1V696.4z M548.4,702.8c0.6,0,1.1-0.1,1.5-0.3c0.5-0.2,0.8-0.6,1-1s0.4-0.9,0.4-1.4
			c0-0.6-0.1-1-0.4-1.4c-0.2-0.4-0.6-0.7-1-1c-0.5-0.2-1-0.3-1.5-0.3h-2v5.5L548.4,702.8z"/>
		<path fill="#FFFFFF" d="M554,696.4h1v7.3h-1V696.4z"/>
		<path fill="#FFFFFF" d="M561.9,701.9H558l-0.8,1.8h-1l3.3-7.3h1l3.3,7.3h-1.1L561.9,701.9z M561.5,701.1l-1.6-3.6l-1.6,3.6H561.5z
			"/>
		<path fill="#FFFFFF" d="M564.9,696.4h1v6.4h3.9v0.9h-5L564.9,696.4L564.9,696.4z"/>
		<path fill="#FFFFFF" d="M529.2,708.9l-3.2,7.3h-1l-3.2-7.3h1.1l2.7,6l2.7-6H529.2z"/>
		<path fill="#FFFFFF" d="M535.4,715.3v0.9h-5.3v-7.3h5.1v0.9h-4.1v2.2h3.7v0.9h-3.7v2.3L535.4,715.3z"/>
		<path fill="#FFFFFF" d="M537.1,708.9h1v6.4h3.9v0.9h-5L537.1,708.9L537.1,708.9z"/>
		<path fill="#FFFFFF" d="M544.5,715.9c-0.6-0.3-1-0.8-1.4-1.4c-0.3-0.6-0.5-1.2-0.5-1.9s0.2-1.4,0.5-1.9c0.3-0.6,0.8-1,1.4-1.4
			c0.6-0.3,1.3-0.5,2-0.5s1.4,0.2,2,0.5s1,0.8,1.4,1.4c0.3,0.6,0.5,1.2,0.5,1.9s-0.2,1.4-0.5,1.9c-0.3,0.6-0.8,1-1.4,1.4
			s-1.3,0.5-2,0.5C545.7,716.3,545.1,716.2,544.5,715.9z M548,715.1c0.4-0.2,0.8-0.6,1-1s0.4-0.9,0.4-1.4s-0.2-1-0.4-1.4
			s-0.6-0.8-1-1s-0.9-0.4-1.4-0.4s-1,0.1-1.4,0.4s-0.8,0.6-1,1s-0.4,0.9-0.4,1.4s0.2,1,0.4,1.4s0.6,0.8,1,1s0.9,0.4,1.4,0.4
			C547,715.4,547.5,715.3,548,715.1z"/>
		<path fill="#FFFFFF" d="M553.3,715.9c-0.6-0.3-1-0.8-1.4-1.4c-0.3-0.6-0.5-1.2-0.5-1.9s0.2-1.4,0.5-1.9c0.3-0.6,0.8-1,1.4-1.4
			c0.6-0.3,1.3-0.5,2-0.5c0.6,0,1.1,0.1,1.5,0.3s0.9,0.5,1.2,0.9l-0.6,0.6c-0.6-0.6-1.2-0.9-2.1-0.9c-0.6,0-1,0.1-1.4,0.4
			c-0.4,0.2-0.8,0.6-1,1s-0.4,0.9-0.4,1.4c0,0.6,0.2,1,0.4,1.4s0.6,0.8,1,1s1,0.4,1.4,0.4c0.8,0,1.5-0.3,2.1-0.9l0.6,0.6
			c-0.3,0.4-0.7,0.6-1.2,0.9c-0.5,0.2-1,0.3-1.6,0.3C554.5,716.3,553.8,716.2,553.3,715.9z"/>
		<path fill="#FFFFFF" d="M559.5,709h1v7.3h-1V709z"/>
		<path fill="#FFFFFF" d="M564.2,709.8h-2.5V709h6v0.9h-2.5v6.4h-1V709.8z"/>
		<path fill="#FFFFFF" d="M571.6,713.8v2.5h-1v-2.6l-2.9-4.7h1.1l2.3,3.9l2.3-3.9h1L571.6,713.8z"/>
	</g>
	<g>
		<path fill="#FFFFFF" d="M645.5,696.4h1v7.3h-1V696.4z"/>
		<path fill="#FFFFFF" d="M655.5,703.7v-5.3l-2.7,4.4h-0.5l-2.7-4.4v5.3h-1v-7.3h0.9l3.1,5.1l3.1-5.1h0.9v7.3H655.5z"/>
		<path fill="#FFFFFF" d="M663.4,702h-3.9l-0.8,1.8h-1l3.3-7.3h1l3.3,7.3h-1.1L663.4,702z M663.1,701.1l-1.6-3.6l-1.6,3.6H663.1z"/>
		<path fill="#FFFFFF" d="M671.3,700.1h1v2.8c-0.4,0.3-0.8,0.6-1.3,0.7c-0.5,0.2-1,0.2-1.5,0.2c-0.7,0-1.4-0.2-2-0.5s-1-0.8-1.4-1.4
			c-0.3-0.6-0.5-1.2-0.5-1.9s0.2-1.4,0.5-1.9s0.8-1,1.4-1.4c0.6-0.3,1.3-0.5,2-0.5c0.6,0,1.1,0.1,1.6,0.3s0.9,0.5,1.2,0.8l-0.6,0.6
			c-0.6-0.6-1.3-0.9-2.1-0.9c-0.6,0-1,0.1-1.5,0.3s-0.8,0.6-1,1s-0.4,0.9-0.4,1.4s0.2,1,0.4,1.4s0.6,0.8,1,1s1,0.4,1.5,0.4
			c0.6,0,1.2-0.2,1.7-0.5L671.3,700.1z"/>
		<path fill="#FFFFFF" d="M674.3,696.5h1v7.3h-1V696.5z"/>
		<path fill="#FFFFFF" d="M683.9,696.5v7.3H683l-4.4-5.5v5.5h-1v-7.3h0.9l4.4,5.5v-5.5H683.9z"/>
		<path fill="#FFFFFF" d="M691.1,700.1h1v2.8c-0.4,0.3-0.8,0.6-1.3,0.7c-0.5,0.2-1,0.2-1.5,0.2c-0.7,0-1.4-0.2-2-0.5s-1-0.8-1.4-1.4
			c-0.3-0.6-0.5-1.2-0.5-1.9s0.2-1.4,0.5-1.9c0.3-0.6,0.8-1,1.4-1.4c0.6-0.3,1.3-0.5,2-0.5c0.6,0,1.1,0.1,1.6,0.3s0.9,0.5,1.2,0.8
			l-0.6,0.6c-0.6-0.6-1.3-0.9-2.1-0.9c-0.6,0-1,0.1-1.5,0.3s-0.8,0.6-1,1s-0.4,0.9-0.4,1.4s0.2,1,0.4,1.4s0.6,0.8,1,1s1,0.4,1.5,0.4
			c0.6,0,1.2-0.2,1.7-0.5L691.1,700.1z"/>
	</g>
	<g>
		<path fill="#FFFFFF" d="M782.7,703.4c-0.6-0.3-1-0.8-1.4-1.4s-0.5-1.2-0.5-1.9s0.2-1.4,0.5-1.9c0.3-0.6,0.8-1,1.4-1.4
			c0.6-0.3,1.3-0.5,2-0.5s1.4,0.2,2,0.5s1,0.8,1.4,1.4c0.3,0.6,0.5,1.2,0.5,1.9s-0.2,1.4-0.5,1.9c-0.3,0.6-0.8,1-1.4,1.4
			s-1.3,0.5-2,0.5S783.3,703.7,782.7,703.4z M786.1,702.6c0.4-0.2,0.8-0.6,1-1s0.4-0.9,0.4-1.4s-0.2-1-0.4-1.4s-0.6-0.8-1-1
			s-0.9-0.4-1.4-0.4s-1,0.1-1.4,0.4c-0.4,0.2-0.8,0.6-1,1s-0.4,0.9-0.4,1.4s0.2,1,0.4,1.4s0.6,0.8,1,1s0.9,0.4,1.4,0.4
			S785.7,702.8,786.1,702.6z"/>
		<path fill="#FFFFFF" d="M791.5,697.5H789v-0.9h6v0.9h-2.5v6.4h-1V697.5z"/>
		<path fill="#FFFFFF" d="M802.5,696.6v7.3h-1v-3.3h-4.2v3.3h-1v-7.3h1v3.1h4.2v-3.1H802.5z"/>
		<path fill="#FFFFFF" d="M810,702.9v0.9h-5.3v-7.3h5.1v0.9h-4.1v2.2h3.7v0.9h-3.7v2.3L810,702.9z"/>
		<path fill="#FFFFFF" d="M816.6,703.9l-1.6-2.2c-0.2,0-0.3,0-0.5,0h-1.8v2.2h-1v-7.3h2.8c1,0,1.7,0.2,2.2,0.6
			c0.6,0.5,0.8,1,0.8,1.8c0,0.6-0.2,1-0.4,1.4s-0.6,0.7-1.2,0.9l1.8,2.5L816.6,703.9z M816,700.4c0.3-0.3,0.6-0.7,0.6-1.2
			c0-0.6-0.2-1-0.5-1.2s-0.9-0.4-1.5-0.4h-1.8v3.3h1.8C815.2,700.8,815.7,700.6,816,700.4z"/>
	</g>
</g>
</svg>
