<?xml version="1.0" encoding="utf-8"?>
<!-- Generator: Adobe Illustrator 23.0.1, SVG Export Plug-In . SVG Version: 6.00 Build 0)  -->
<svg version="1.1" id="Layer_1" xmlns="http://www.w3.org/2000/svg" xmlns:xlink="http://www.w3.org/1999/xlink" x="0px" y="0px"
	 width="1200px" height="730px" viewBox="0 0 1200 730" enable-background="new 0 0 1200 730" xml:space="preserve">
<metadata><?xpacket begin="﻿" id="W5M0MpCehiHzreSzNTczkc9d"?>
<x:xmpmeta xmlns:x="adobe:ns:meta/" x:xmptk="Adobe XMP Core 5.6-c145 79.163499, 2018/08/13-16:40:22        ">
   <rdf:RDF xmlns:rdf="http://www.w3.org/1999/02/22-rdf-syntax-ns#">
      <rdf:Description rdf:about=""
            xmlns:xmp="http://ns.adobe.com/xap/1.0/"
            xmlns:xmpGImg="http://ns.adobe.com/xap/1.0/g/img/"
            xmlns:xmpTPg="http://ns.adobe.com/xap/1.0/t/pg/"
            xmlns:stDim="http://ns.adobe.com/xap/1.0/sType/Dimensions#"
            xmlns:xmpG="http://ns.adobe.com/xap/1.0/g/"
            xmlns:dc="http://purl.org/dc/elements/1.1/">
         <xmp:CreatorTool>Adobe Illustrator CC 23.0 (Macintosh)</xmp:CreatorTool>
         <xmp:CreateDate>2018-11-27T21:46:54-05:00</xmp:CreateDate>
         <xmp:Thumbnails>
            <rdf:Alt>
               <rdf:li rdf:parseType="Resource">
                  <xmpGImg:width>256</xmpGImg:width>
                  <xmpGImg:height>256</xmpGImg:height>
                  <xmpGImg:format>JPEG</xmpGImg:format>
                  <xmpGImg:image>/9j/4AAQSkZJRgABAgEASABIAAD/7QAsUGhvdG9zaG9wIDMuMAA4QklNA+0AAAAAABAASAAAAAEA&#xA;AQBIAAAAAQAB/+4ADkFkb2JlAGTAAAAAAf/bAIQABgQEBAUEBgUFBgkGBQYJCwgGBggLDAoKCwoK&#xA;DBAMDAwMDAwQDA4PEA8ODBMTFBQTExwbGxscHx8fHx8fHx8fHwEHBwcNDA0YEBAYGhURFRofHx8f&#xA;Hx8fHx8fHx8fHx8fHx8fHx8fHx8fHx8fHx8fHx8fHx8fHx8fHx8fHx8fHx8f/8AAEQgBAAEAAwER&#xA;AAIRAQMRAf/EAaIAAAAHAQEBAQEAAAAAAAAAAAQFAwIGAQAHCAkKCwEAAgIDAQEBAQEAAAAAAAAA&#xA;AQACAwQFBgcICQoLEAACAQMDAgQCBgcDBAIGAnMBAgMRBAAFIRIxQVEGE2EicYEUMpGhBxWxQiPB&#xA;UtHhMxZi8CRygvElQzRTkqKyY3PCNUQnk6OzNhdUZHTD0uIIJoMJChgZhJRFRqS0VtNVKBry4/PE&#xA;1OT0ZXWFlaW1xdXl9WZ2hpamtsbW5vY3R1dnd4eXp7fH1+f3OEhYaHiImKi4yNjo+Ck5SVlpeYmZ&#xA;qbnJ2en5KjpKWmp6ipqqusra6voRAAICAQIDBQUEBQYECAMDbQEAAhEDBCESMUEFURNhIgZxgZEy&#xA;obHwFMHR4SNCFVJicvEzJDRDghaSUyWiY7LCB3PSNeJEgxdUkwgJChgZJjZFGidkdFU38qOzwygp&#xA;0+PzhJSktMTU5PRldYWVpbXF1eX1RlZmdoaWprbG1ub2R1dnd4eXp7fH1+f3OEhYaHiImKi4yNjo&#xA;+DlJWWl5iZmpucnZ6fkqOkpaanqKmqq6ytrq+v/aAAwDAQACEQMRAD8A9U4q7FXYq7FXYq7FXYq7&#xA;FXYq7FVKe7toCFlkCu32Ixu7f6qCrN9AxVS+tXUn9xanj2edvSBHsAHf/glGKu9C/f8AvLkRjwhj&#xA;ANfAmQyA/wDAjFWxYRneSWaRu7GV1r/sUKL+GKuGmacKf6NESKfEUUnb3Irira6fYJXjbRLXrRFH&#xA;8MVc2n2D05W0TU6VRT/DFWjpmnGv+jRAmvxBFB39wK4q42EY3jlmjbswldqf7Fy6/hirXoX6f3dy&#xA;JB4TRgmvgDGYwP8AgTirvrV1H/f2p493gb1QB7ghH/4FTiqrBd205KxSBnX7cZ2df9ZDRl+kYqq4&#xA;q7FXYq7FXYq7FXYq7FXYq7FXYq7FXYq7FXYq7FXYq7FUPNfRI5ijVp7gdYY6EivTkSQq/wCyPyxV&#xA;Z6F7PvcS+in++YCa/JpSA3/AhcVVoLW3twRDGE5buw+0x8WY7k+5xVVxV2KuxV2KuxV2KuxV2Kux&#xA;V2KqU9rb3AAmjD8d0Y/aU+KsNwfcYqo+hewb28vrJ/vmcmvyWUAt/wAEGxVfDfRO4ikVoLg9IZKA&#xA;mnXiQSrf7E/PFURirsVdirsVdirsVdirsVdirsVdirsVdirsVU57iGCP1JW4r0HcknoABuSewGKo&#xA;cLeXe8nK1tz0jU0mb/WYfYHsu/uOmKomGCGCMRwoEQdFUU+nFV+KuxV2KuxV2KuxV2KuxV2KuxV2&#xA;KuxV2KuxVZNBDPGY5kDoeqsK/TiqGK3lpvHyurcdY2NZl/1WP2x7Nv7npiqIguIZ4/UibkvQ9iCO&#xA;oIO4I7g4qqYq7FXYq7FXYq7FXYq7FXYq7FXYqoXN2InWGNfVuXFUiBpt/Mx/ZX3+6pxVbb2ZV/Xu&#xA;G9a57PSioD+zGu/EePc98VROKuxV2KuxV2KuxV2KuxV2KuxV2KuxV2KuxV2KuxV2KuxVDXFmWf17&#xA;dvRue70qrgfsyLtyHh3HbFW7a7ErtDIvpXKCrxE12/mU7cl9/vocVRGKuxV2KuxV2KuxV2KuxV2K&#xA;oe5uXVxb24D3LjkA32UXpzenbwHf7yFV1rapbq1CXlc1lmanJz70/AdBiqtirsVdirsVdirsVdir&#xA;sVdirsVdirsVdirsVdirsVdirsVdirsVUbq1S4VakpKhrFMtOSH2r+I6HFVttcuzmC4AS5QVIH2X&#xA;WtOaV7eI7fcSqiMVdirsVdirsVdirsVULu5eILHCoe5lqIkPTbqzf5K9/u6nFW7W1W3QjkXlc8pp&#xA;T1dqUr/QdhiqtirsVdirsVdirsVdirsVdirsVdirsVdirsVdirsVdirsVdirsVdirsVUbq1W4QDk&#xA;UlQ8oZR1RqUr/UdxirVpcvKGjmUJcxUEqDpv0Zf8lu33dRiqvirsVdirsVdiqncTxwQtLJ9lew3J&#xA;J2AA7knYDFVKzt3UtcT/AO9M1OY6hFH2Y19lr17nfFUTirsVdirsVdirsVdirsVdirsVdirsVdir&#xA;sVdirsVdirsVdirsVdirsVdirsVQ15buxW4g/wB6Ya8B0DqftRt7NTr2O+KqtvPHPCssf2W7HYgj&#xA;YgjsQdiMVVMVdirsVdiqDUfW7z1Dvb2rFYx/NMNmb5J9ke9fAYqjMVdirsVdirsVdirsVdirsVdi&#xA;rsVdirsVdirsVdirsVdirsVdirsVdirsVdirsVdiqDYfVLz1Btb3TBZB/LMdlb5P9k+9PE4qjMVd&#xA;irsVQ99M6RLHEaXE7enCetCQSWp/kqC34YqqwQxwQpDGKIgCqPl44qvxV2KuxV2KuxV2KuxV2Kux&#xA;VxIAqdgOpxVC/pGFzS3V7n/KiAKf8jGKofobFWw2pP8AsRQDrUlpT8ioEf8AxI4q4xagykG4jU9m&#xA;SIg/8M7Yq4RagqgC4jY92eIk/wDCuuKuLakn7EU461BaI/IKRJ/xIYq1+kYUNLhXtv8AKlACf8jF&#xA;LIPpbFUUCCKjcHocVdirsVdirsVdirsVdirsVdiqyeGOeF4ZBVHBVh8/DFVKxmd4mjlNbiBvTmPS&#xA;pABDU/ylIb8MVRGKuxVCQfv72W4P2IawQ/OoMrD/AGQC/wCxxVF4q7FXYq7FXYq7FXYq7FXYqh5r&#xA;ykhggT1rgULJWioD3dqHj8uvtiqwWAlIa9f6w3URkUiHyj3r82qcVReKuxV2KuxV2KuxVCGwERLW&#xA;T/V26mMCsR+ce1PmtDiq+G8rIIJ09G4NSqVqrgd0ag5fLr7YqiMVdirsVdirsVdirsVdirsVQk/7&#xA;i9iuB9iakE3zqTEx/wBkSv8AssVReKqV3OYLaSVRydRSNP5nOyL/ALJiBirrWAW9vHCDy4CjOerN&#xA;1Zj7k7nFVXFXYq7FXYq7FXYq7FXYqhJppppjbWx48f8Aei42PCorxWvVz9wG57Aqq8FvFBGI4lov&#xA;UnqST1LE7knuTiqpirsVdirsVdirsVdirsVU57eKeMxyryXqOxBHQqRuCOxGKqEM00Mwtrk8uX+8&#xA;9xsOdBXi1Ojj7iNx3AVReKuxV2KuxV2KuxV2KuxVSuoBcW8kJPHmKK46q3VWHuDuMVdaTme2jlYc&#xA;XYUkT+Vxs6/7FgRiqldfvLq1g/Zq07jsRFQAf8G6t9GKorFXYq7FXYq7FXYq7FXYqh7yaQcIIDS4&#xA;mrwYioRRTk5/1a7e9MVVLeCOCJYox8K9zuSTuWJ7kncnFVTFXYq7FXYq7FXYq7FXYq7FXYqp3EEc&#xA;8TRSD4T0I2II3DA9iDuDiqnZzSHnBOa3ENObAUDqa8XH+tTf3riqIxV2KuxV2KuxV2KuxV2KoW1/&#xA;d3V1B+zVZ0HYCWoI/wCDRm+nFXQfHf3MnaMRwjxqAZCR8xIv3YqisVdirsVdirsVdirsVcSAKnYD&#xA;qcVQlgDKHvWHxXFDGD2iH92PpryPucVReKuxV2KuxV2KuxV2KuxV2KuxV2KuxVCX4MQS9UfFb1Mg&#xA;HeI/3g+inIe4xVFggio3B6HFXYq7FXYq7FXYq7FXYqhZ/gv7aTtIJIT41IEgJ+Qjb78VbsBWOWQ/&#xA;akmlLHx4uUX/AIVBiqJxV2KuxV2KuxV2KuxVC6jV4Vtx/wAfLiJv9QgtJ96KwxVFYq7FXYq7FXYq&#xA;7FVsksUS8pHVF6VYgD8cVdHLFKvKN1delVII/DFV2KuxV2KuxV2KuxVC6dVIWtz/AMezmJf9QANH&#xA;9yMoxVFYq7FXYq7FXYq7FXYqhr8UjikH2o5oip8OThG/4VzirtMFNOttqExIW2puVBP44qicVdir&#xA;sVdirsVdirsVQzDnqSeEERJr4ysApH/ItvvxVE4q7FXYq7FXYqhZZZbiV7e3cxrGQJ5wASCRXgla&#xA;jlQ1JPT59FV8VjaRMHSIeqP92t8Uh+btVj9+KulsbSVi7xD1T/u1fhkHydaMPvxVTillt5Ut7hzI&#xA;shIgnIAJIFeD025U3BHX59VUXirsVdirsVdiqGUcNSfwniBFPGJiGJ/5GL92KonFXYq7FXYq7FXY&#xA;q7FUNqYrp1ztUiJyu1dwpI/HFW9PXhYWy1rxiQV+SjFURirsVdirsVdirsVdiqGiKtqFwQd1jiRh&#xA;7gu3/G2KonFXYq7FXYqtlkWKJ5G+yiljTwAriqlYxNFaRI4pLTlL7yN8Tn6WJxVXxV2KqF9E0tpK&#xA;iCstOUXtIvxIfoYDFVWKRZYkkX7LqGFfAiuKrsVdirsVdiqGlKrqFuSd2jlRR7ko3/GuKonFXYq7&#xA;FXYq7FXYq7FUPqC87C5WtOUTivzU4q7T252Fs1KcokNPmoxVEYq7FXYq7FXYq7FXYqhogq6hcADd&#xA;o4nY+5Lr/wAa4qicVdirsVdiq2WNZYnjb7LqVNPAimKqVjK0tpE7mstOMvtIvwuPoYHFVfFXYqoX&#xA;0rRWkroaS04xe8jfCg+liMVVYo1jjSNfsooUV8AKYquxV2KuxV2KoaUK2oW4I3WOV1PuCi/8bYqi&#xA;cVdirsVdirsVdirsVQ+oNwsLlqV4xOafJTirWmGunW29SIkDb13CgH8cVROKuxV2KuxV2KuxV2Ko&#xA;Zjw1JPCeIg18YmBUD/kY33YqicVdirsVdirsVQssUtvK9xboZFkIM8AIBJApzStByoKEHr8+qq+K&#xA;+tJWCJKPVP8AupvhkHzRqMPuxV0t9aRMUeUeqP8AdS/FIfki1Y/diqnFFLcSpcXCGNYyTBASCQSK&#xA;c3ptypsAOnz6KovFXYq7FXYq7FUMp56k/hBEAKeMrEsD/wAi1+/FUTirsVdirsVdirsVdiqG1M00&#xA;653oTE4Xem5UgfjirrA0jljP2o5pQw8OTl1/4VxiqJxV2KuxV2KuxV2KuxVC6hVIUuB/x7OJW/1A&#xA;Csn3IzHFUVirsVdirsVdirsVWyRRyLxkRXXrRgCPxxV0cUUS8Y0VF60UAD8MVXYq7FXYq7FXYq7F&#xA;ULp3xwvcH/j5cyj/AFCAsf3oqnFUVirsVdirsVdirsVdiqGvzWOKMfakmiCjx4uHb/hUOKtQfBf3&#xA;MfaQRzDxqQYyB8hGv34qisVdirsVdirsVdirsVcQCKHcHqMVQlgTEHsmPxW9BGT3iP8Adn6KcT7j&#xA;FUXirsVdirsVdirsVdirsVdirsVdirsVQl+TKEslPxXFRIR2iH94fprxHucVRYAAoNgOgxV2KuxV&#xA;2KuxV2KuxV2KoWf47+2j7RiSY+NQBGAfmJG+7FXXX7u6tZ/2atA57AS0IP8AwaKv04qisVdirsVd&#xA;irsVdirsVdiqHvIZDwngFbiGvBSaB1NOSH/Wpt70xVUt5454lljPwnqDsQRsVI7EHYjFVTFXYq7F&#xA;XYq7FXYq7FXYq7FXYqp3E8cETSyH4R0A3JJ2CgdyTsBiqnZwyDnPOKXE1Oag1CKK8UH+rXf3riqI&#xA;xV2KuxV2KuxV2KuxV2KoW1/eXV1P+zVYUPYiKpJ/4N2X6MVVbuAz20kSni7Csb/yuN0b/YsAcVda&#xA;zi4t45gOPMVZD1VujKfcHY4qq4q7FXYq7FXYq7FXYq7FUJNDNDMbm2HLl/vRb7DnQU5LXo4+4jY9&#xA;iFVeC4injEkTcl6HsQR1DA7gjuDiqpirsVdirsVdirsVdirsVU57iKCMyStRegHUknoFA3JPYDFV&#xA;CGGaaYXNyOPH/ee32PCopyanVz9wGw7kqovFXYq7FXYq7FXYq7FXYqpXU4t7eSYjlwFVQdWboqj3&#xA;J2GKutIDBbRxMeTqKyP/ADOd3b/ZMScVVcVQkH7i9ltz9ias8PzqBKo/2RDf7LFUXirsVdirsVdi&#xA;rsVdirsVdiqHms6yGeB/RuDQM9Kq4HZ1qOXz6++KrBfiIhb1Pq7dBITWI/KTanyahxVF4q7FXYq7&#xA;FXYq7FUIb8SkrZJ9YboZAaRD5yb1+S1OKr4bOkgnnf1rgVCvSioD2Ranj8+vviqIxV2KuxV2KuxV&#xA;2KuxV2KuxVCT/v72K3H2IaTzfOpESn/ZAt/scVReKuxVD30LvEskQrcQN6kI6VIBBWv+UpK/jiqr&#xA;BNHPCk0ZqjgMp+fjiq/FXYq7FXYq7FXYq7FXYq7FXEAih3B6jFUL+joUNbdntv8AJiICf8i2DIPo&#xA;XFWwupJ+3FOOlCGiPzLAyf8AERirjLqCqSbeNj2VJST/AMMi4q4S6gygi3jU91eUg/8ACo2KuK6k&#xA;/wC3FAOlAGlPzDEx/wDETirX6Ohc1uGe5/yZSCn/ACLUKh+lcVRQAAoNgOgxV2KuxV2KuxV2KuxV&#xA;2KuxV2KrJ5o4IXmkNEQFmPy8MVUrGF0iaSUUuJ29SYdaEgALX/JUBfxxVEYq7FXYqg1P1S89M7W9&#xA;0xaM/wAsx3Zfk/2h718RiqMxV2KuxV2KuxV2KuxV2KuxV2KuxV2KuxV2KuxV2KuxV2KuxV2KuxV2&#xA;KuxV2KuxV2KoNj9bvPTG9vasGkP80w3Vfkn2j708DiqMxV2KuxV2KqdxBHPC0Un2W7jYgjcEHsQd&#xA;wcVUrO4di1vP/vTDTmegdT9mRfZqdOx2xVE4q7FXYq7FXYq7FXYq7FXYq7FXYq7FXYq7FXYq7FXY&#xA;q7FXYq7FXYq7FXYq7FUNeXDqVt4P96Zq8DSoRR9qRvZa/SdsVVbeCOCFYo/sr3O5JO5JPck7k4qq&#xA;Yq7FXYq7FXYqoXds8oWSFglzFUxOem/VW/yW7/f1GKt2t0twhPEpKh4zRHqjUrT+h7jFVbFXYq7F&#xA;XYq7FXYq7FXYq7FXYq7FXYq7FXYq7FXYq7FXYq7FXYq7FXYqo3V0tugPEvK54wxDq7UrT+p7DFWr&#xA;S2eINJMwe5loZXHTboq/5K9vv6nFVfFXYq7FXYq7FXYq7FUPc2zs4ntyEuUFAT9l1rXg9O3ge33g&#xA;qrrW6S4VqApKhpLC1OSH3p+B6HFVbFXYq7FXYq7FXYq7FXYq7FXYq7FXYq7FXYq7FXYq7FXYq7FX&#xA;Yqo3V0luq1BeVzSKFacnPtX8T0GKrba2dXa4uGD3LihI+yi9eCV7eJ7/AHAKojFXYq7FXYq7FXYq&#xA;7FXYq7FUPc2gldZo29K5QUSUCu38rDbkvt91DirVveFn9C4X0bnslaq4H7Ubbch49x3xVE4q7FXY&#xA;q7FXYq7FXYq7FXYq7FXYq7FXYq7FXYq7FXYq7FUNcXhV/Qt19a57pWioD+1I2/EeHc9sVXW1oIna&#xA;aRvVuXFHlIpt/Ko/ZX2++pxVXxV2KuxV2KuxV2KuxV2KuxV2KuxVTnt4Z4/TlXkvUdiCOhBG4I7E&#xA;Yqhw15abScrq3HSRRWZf9ZR9se67+x64qiYZ4Z4xJC4dD0ZTX6MVX4q7FXYq7FXYq7FXYq7FXYq7&#xA;FXYq7FXYq7FVk08MEZkmcIg6sxp9GKoYteXe0fK1tz1kYUmb/VU/YHu2/sOuKoiC3hgj9OJeK9T3&#xA;JJ6kk7knuTiqpirsVdirsVdirsVdirsVdirsVdirsVdirsVQ81jE7mWNmguD1mjoCadOQIKt/sh8&#xA;sVWevewbXEXrJ/v6AGvzaIkt/wACWxVWgure4BMMgfjs6j7SnwZTuD7HFVXFXYq7FXYq7FXYq7FX&#xA;Yq7FXYqpT3VvbgGaQJy2RT9pj4Ko3J9hiqj697Ptbxein+/pwa/NYgQ3/BFcVXw2MSOJZGae4HSa&#xA;ShIr14gAKv8AsR88VRGKuxV2KuxV2KuxV2KuxV2KuxV2KuxV2KuxV2KuxV2KuxVSntLachpYwzr9&#xA;iQbOv+q4oy/QcVUvqt1H/cXR49knX1QB7EFH/wCCY4q7179P7y2Eg8YZATXxIkEYH/BHFWxfxjaS&#xA;KaNu6mJ2p/skDr+OKuGp6caf6TECafCXUHf2Jrira6hYPXjcxNTrR1P8cVc2oWCU5XMS16VdR/HF&#xA;WjqenCv+kxEivwh1J29ga4q438Z2jimkbsoida/7Jwi/jirXr37/AN3bCMeM0gBr4gRiQH/ghirv&#xA;qt1J/f3R490gX0gR7kl3/wCBYYqqwWltAS0UYV2+3Id3b/Wc1ZvpOKquKuxV2KuxV2KuxV2KuxV2&#xA;KuxV/9k=</xmpGImg:image>
               </rdf:li>
            </rdf:Alt>
         </xmp:Thumbnails>
         <xmpTPg:MaxPageSize rdf:parseType="Resource">
            <stDim:w>1200.000000</stDim:w>
            <stDim:h>730.000000</stDim:h>
            <stDim:unit>Points</stDim:unit>
         </xmpTPg:MaxPageSize>
         <xmpTPg:NPages>1</xmpTPg:NPages>
         <xmpTPg:HasVisibleTransparency>True</xmpTPg:HasVisibleTransparency>
         <xmpTPg:HasVisibleOverprint>False</xmpTPg:HasVisibleOverprint>
         <xmpTPg:PlateNames>
            <rdf:Seq>
               <rdf:li>Cyan</rdf:li>
               <rdf:li>Magenta</rdf:li>
               <rdf:li>Yellow</rdf:li>
               <rdf:li>Black</rdf:li>
            </rdf:Seq>
         </xmpTPg:PlateNames>
         <xmpTPg:SwatchGroups>
            <rdf:Seq>
               <rdf:li rdf:parseType="Resource">
                  <xmpG:groupName>Default Swatch Group</xmpG:groupName>
                  <xmpG:groupType>0</xmpG:groupType>
               </rdf:li>
            </rdf:Seq>
         </xmpTPg:SwatchGroups>
         <dc:format>image/svg+xml</dc:format>
      </rdf:Description>
   </rdf:RDF>
</x:xmpmeta>
                                                                                                    
                                                                                                    
                                                                                                    
                                                                                                    
                                                                                                    
                                                                                                    
                                                                                                    
                                                                                                    
                                                                                                    
                                                                                                    
                                                                                                    
                                                                                                    
                                                                                                    
                                                                                                    
                                                                                                    
                                                                                                    
                                                                                                    
                                                                                                    
                                                                                                    
                                                                                                    
                           
<?xpacket end="w"?>
	</metadata>
<g id="Layer_3">
</g>
<g opacity="0.8">
	<g>
		<path fill="#969696" d="M605,515.9c-40.3,0-78.2-15.7-106.7-44.2c-28.5-28.5-44.2-66.4-44.2-106.7c0-40.3,15.7-78.2,44.2-106.7
			c28.5-28.5,66.4-44.2,106.7-44.2c40.3,0,78.2,15.7,106.7,44.2s44.2,66.4,44.2,106.7c0,40.3-15.7,78.2-44.2,106.7
			C683.2,500.2,645.3,515.9,605,515.9z M605,214.5c-40.2,0-78,15.7-106.4,44.1c-28.4,28.4-44.1,66.2-44.1,106.4
			c0,40.2,15.7,78,44.1,106.4c28.4,28.4,66.2,44.1,106.4,44.1c40.2,0,78-15.7,106.4-44.1c28.4-28.4,44.1-66.2,44.1-106.4
			c0-40.2-15.7-78-44.1-106.4C683,230.2,645.2,214.5,605,214.5z"/>
		<path fill="#969696" d="M605,516.4c-40.4,0-78.5-15.8-107.1-44.4c-28.6-28.6-44.4-66.6-44.4-107.1c0-40.4,15.8-78.5,44.4-107.1
			c28.6-28.6,66.6-44.4,107.1-44.4c40.4,0,78.5,15.8,107.1,44.4c28.6,28.6,44.4,66.6,44.4,107.1c0,40.4-15.8,78.5-44.4,107.1
			C683.5,500.7,645.5,516.4,605,516.4z M605,215c-40.1,0-77.7,15.6-106.1,43.9c-28.3,28.3-43.9,66-43.9,106.1
			c0,40.1,15.6,77.7,43.9,106.1c28.3,28.3,66,43.9,106.1,43.9c40.1,0,77.7-15.6,106.1-43.9S755,405.1,755,365
			c0-40.1-15.6-77.7-43.9-106.1C682.7,230.6,645.1,215,605,215z"/>
	</g>
</g>
<g id="Layer_3_1_">
</g>
<g opacity="0.8">
	<g>
		<path fill="#969696" d="M605,933.5c-76.7,0-151.2-15-221.3-44.7C316,860.2,255.2,819.2,203,767c-52.2-52.2-93.2-113-121.8-180.7
			C51.5,516.2,36.5,441.7,36.5,365c0-76.7,15-151.2,44.7-221.3C109.8,76,150.8,15.2,203-37c52.2-52.2,113-93.2,180.7-121.8
			c70.1-29.6,144.5-44.7,221.3-44.7c76.7,0,151.2,15,221.3,44.7C894-130.2,954.8-89.2,1007-37c52.2,52.2,93.2,113,121.8,180.7
			c29.6,70.1,44.7,144.5,44.7,221.3c0,76.7-15,151.2-44.7,221.3C1100.2,654,1059.2,714.8,1007,767s-113,93.2-180.7,121.8
			C756.2,918.5,681.8,933.5,605,933.5z M605-202.9c-76.7,0-151.1,15-221.1,44.6c-67.6,28.6-128.4,69.6-180.5,121.7
			S110.3,76.3,81.7,143.9c-29.6,70-44.6,144.4-44.6,221.1s15,151.1,44.6,221.1c28.6,67.6,69.6,128.4,121.7,180.5
			c52.2,52.2,112.9,93.1,180.5,121.7c70,29.6,144.4,44.6,221.1,44.6s151.1-15,221.1-44.6c67.6-28.6,128.4-69.6,180.5-121.7
			c52.2-52.2,93.1-112.9,121.7-180.5c29.6-70,44.6-144.4,44.6-221.1s-15-151.1-44.6-221.1c-28.6-67.6-69.6-128.4-121.7-180.5
			c-52.2-52.2-112.9-93.1-180.5-121.7C756.1-187.9,681.7-202.9,605-202.9z"/>
		<path fill="#969696" d="M605,934c-76.8,0-151.3-15-221.5-44.7c-67.8-28.7-128.6-69.7-180.9-121.9
			c-52.3-52.3-93.3-113.1-121.9-180.9C51,516.3,36,441.8,36,365s15-151.3,44.7-221.5c28.7-67.8,69.7-128.6,121.9-180.9
			c52.3-52.3,113.1-93.3,180.9-121.9C453.7-189,528.2-204,605-204s151.3,15,221.5,44.7c67.8,28.7,128.6,69.7,180.9,121.9
			c52.3,52.3,93.3,113.1,121.9,180.9C1159,213.7,1174,288.2,1174,365c0,76.8-15,151.3-44.7,221.5c-28.7,67.8-69.7,128.6-121.9,180.9
			s-113.1,93.3-180.9,121.9C756.3,919,681.8,934,605,934z M605-202.4c-76.6,0-150.9,15-220.9,44.6
			c-67.6,28.6-128.3,69.5-180.4,121.6s-93,112.8-121.6,180.4c-29.6,70-44.6,144.3-44.6,220.9c0,76.6,15,150.9,44.6,220.9
			c28.6,67.6,69.5,128.3,121.6,180.4s112.8,93,180.4,121.6c70,29.6,144.3,44.6,220.9,44.6s150.9-15,220.9-44.6
			c67.6-28.6,128.3-69.5,180.4-121.6s93-112.8,121.6-180.4c29.6-70,44.6-144.3,44.6-220.9s-15-150.9-44.6-220.9
			c-28.6-67.6-69.5-128.3-121.6-180.4s-112.8-93-180.4-121.6C755.9-187.4,681.6-202.4,605-202.4z"/>
	</g>
</g>
<g opacity="0.8">
	<g>
		<path fill="#969696" d="M605,1557.1c-160.9,0-317.1-31.5-464-93.7c-70.6-29.9-138.8-66.9-202.5-109.9
			c-63.1-42.6-122.5-91.6-176.4-145.6c-53.9-53.9-102.9-113.3-145.6-176.4c-43.1-63.7-80-131.9-109.9-202.5
			c-62.2-147-93.7-303.1-93.7-464c0-160.9,31.5-317.1,93.7-464c29.9-70.6,66.9-138.8,109.9-202.5C-340.9-364.7-291.9-424-238-478
			c53.9-53.9,113.3-102.9,176.4-145.6c63.7-43.1,131.9-80,202.5-109.9c147-62.2,303.1-93.7,464-93.7c160.9,0,317.1,31.5,464,93.7
			c70.6,29.9,138.8,66.9,202.5,109.9c63.1,42.6,122.5,91.6,176.4,145.6c53.9,53.9,102.9,113.3,145.6,176.4
			c43.1,63.7,80,131.9,109.9,202.5c62.2,147,93.7,303.1,93.7,464c0,160.9-31.5,317.1-93.7,464c-29.9,70.6-66.9,138.8-109.9,202.5
			c-42.6,63.1-91.6,122.5-145.6,176.4c-53.9,53.9-113.3,102.9-176.4,145.6c-63.7,43.1-131.9,80-202.5,109.9
			C922.1,1525.6,765.9,1557.1,605,1557.1z M605-826.4c-160.8,0-316.9,31.5-463.7,93.6C70.7-702.9,2.6-665.9-61.1-622.9
			c-63.1,42.6-122.4,91.6-176.3,145.5c-53.9,53.9-102.9,113.2-145.5,176.3c-43,63.7-80,131.8-109.8,202.4
			c-62.1,146.9-93.6,302.9-93.6,463.7c0,160.8,31.5,316.9,93.6,463.7c29.9,70.6,66.8,138.7,109.8,202.4
			c42.6,63.1,91.6,122.4,145.5,176.3c53.9,53.9,113.2,102.9,176.3,145.5c63.7,43,131.8,80,202.4,109.8
			c146.9,62.1,302.9,93.6,463.7,93.6c160.8,0,316.9-31.5,463.7-93.6c70.6-29.9,138.7-66.8,202.4-109.8
			c63.1-42.6,122.4-91.6,176.3-145.5c53.9-53.9,102.9-113.2,145.5-176.3c43-63.7,80-131.8,109.8-202.4
			c62.1-146.9,93.6-302.9,93.6-463.7c0-160.8-31.5-316.9-93.6-463.7c-29.9-70.6-66.8-138.7-109.8-202.4
			c-42.6-63.1-91.6-122.4-145.5-176.3c-53.9-53.9-113.2-102.9-176.3-145.5c-63.7-43-131.8-80-202.4-109.8
			C921.9-794.9,765.8-826.4,605-826.4z"/>
		<path fill="#969696" d="M605,1557.6c-161,0-317.2-31.5-464.2-93.7C70.1,1434,1.9,1397-61.8,1353.9
			c-63.1-42.7-122.5-91.7-176.5-145.6c-54-54-103-113.4-145.6-176.5c-43.1-63.8-80.1-131.9-110-202.6
			c-62.2-147-93.7-303.2-93.7-464.2s31.5-317.2,93.7-464.2c29.9-70.7,66.9-138.8,110-202.6c42.7-63.2,91.7-122.5,145.6-176.5
			c54-54,113.4-103,176.5-145.6C1.9-667,70.1-704,140.8-733.9c147-62.2,303.2-93.7,464.2-93.7s317.2,31.5,464.2,93.7
			c70.7,29.9,138.8,66.9,202.6,110c63.2,42.7,122.5,91.7,176.5,145.6c54,54,103,113.4,145.6,176.5c43.1,63.8,80.1,131.9,110,202.6
			c62.2,147,93.7,303.2,93.7,464.2c0,161-31.5,317.2-93.7,464.2c-29.9,70.7-66.9,138.8-110,202.6c-42.7,63.1-91.7,122.5-145.6,176.5
			c-54,54-113.4,103-176.5,145.6c-63.8,43.1-131.9,80.1-202.6,110C922.2,1526.1,766,1557.6,605,1557.6z M605-825.9
			c-160.8,0-316.7,31.5-463.5,93.6C70.9-702.4,2.8-665.5-60.8-622.5c-63.1,42.6-122.4,91.5-176.2,145.4
			c-53.9,53.9-102.8,113.2-145.4,176.2c-43,63.7-80,131.7-109.8,202.3c-62.1,146.8-93.6,302.8-93.6,463.5
			c0,160.8,31.5,316.7,93.6,463.5c29.8,70.6,66.8,138.6,109.8,202.3c42.6,63.1,91.5,122.4,145.4,176.2
			c53.9,53.9,113.2,102.8,176.2,145.4c63.7,43,131.7,80,202.3,109.8c146.8,62.1,302.8,93.6,463.5,93.6
			c160.8,0,316.7-31.5,463.5-93.6c70.6-29.8,138.6-66.8,202.3-109.8c63.1-42.6,122.4-91.5,176.2-145.4
			c53.9-53.9,102.8-113.2,145.4-176.2c43-63.7,80-131.7,109.8-202.3c62.1-146.8,93.6-302.8,93.6-463.5
			c0-160.8-31.5-316.7-93.6-463.5c-29.8-70.6-66.8-138.6-109.8-202.3c-42.6-63.1-91.5-122.4-145.4-176.2
			c-53.9-53.9-113.2-102.8-176.2-145.4c-63.7-43-131.7-80-202.3-109.8C921.7-794.4,765.8-825.9,605-825.9z"/>
	</g>
</g>
</svg>
